<svg viewBox="0 0 64 64" xml:space="preserve" xmlns="http://www.w3.org/2000/svg"><circle cx="32" cy="32" fill="#ef4444" r="32" class="fill-77b3d4"></circle><circle cx="32" cy="33.917" fill="#231F20" opacity=".2" r="13.083" class="fill-231f20"></circle><circle cx="32" cy="33.083" fill="#fecaca" r="13.083" class="fill-4f5d73"></circle><circle cx="32" cy="32" fill="#fecaca" r="13.083" class="fill-4f5d73"></circle><path d="M32 12c-12.15 0-22 9.85-22 22s9.85 22 22 22 22-9.85 22-22-9.85-22-22-22zM14.5 30.5a5.5 5.5 0 1 1 11 0 5.5 5.5 0 0 1-11 0zm9.969 19a5.5 5.5 0 1 1 0-11 5.5 5.5 0 0 1 0 11zm2.031-28a5.5 5.5 0 1 1 11 0 5.5 5.5 0 0 1-11 0zm12.969 28a5.5 5.5 0 1 1 0-11 5.5 5.5 0 0 1 0 11zM44.042 36a5.5 5.5 0 1 1 0-11 5.5 5.5 0 0 1 0 11z" fill="#231F20" opacity=".2" class="fill-231f20"></path><path d="M32 10c-12.15 0-22 9.85-22 22s9.85 22 22 22 22-9.85 22-22-9.85-22-22-22zM14.5 28.5a5.5 5.5 0 1 1 11 0 5.5 5.5 0 0 1-11 0zm9.969 19a5.5 5.5 0 1 1 0-11 5.5 5.5 0 0 1 0 11zm2.031-28a5.5 5.5 0 1 1 11 0 5.5 5.5 0 0 1-11 0zm12.969 28a5.5 5.5 0 1 1 0-11 5.5 5.5 0 0 1 0 11zM44.042 34a5.5 5.5 0 1 1 0-11 5.5 5.5 0 0 1 0 11z" fill="#FFFFFF" class="fill-ffffff"></path></svg>